<?xml version="1.0" encoding="UTF-8" standalone="no"?>
<!DOCTYPE svg PUBLIC "-//W3C//DTD SVG 1.1//EN"
 "http://www.w3.org/Graphics/SVG/1.1/DTD/svg11.dtd">
<!-- Generated by graphviz version 2.36.0 (20140111.2315)
 -->
<!-- Title: controllers_diagram Pages: 1 -->
<svg width="354pt" height="357pt"
 viewBox="0.00 0.00 354.00 357.00" xmlns="http://www.w3.org/2000/svg" xmlns:xlink="http://www.w3.org/1999/xlink">
<g id="graph0" class="graph" transform="scale(1 1) rotate(0) translate(4 353)">
<title>controllers_diagram</title>
<polygon fill="white" stroke="none" points="-4,4 -4,-353 350,-353 350,4 -4,4"/>
<!-- _diagram_info -->
<g id="node1" class="node"><title>_diagram_info</title>
<text text-anchor="start" x="8" y="-138.6" font-family="Times,serif" font-size="13.00">Controllers diagram</text>
<text text-anchor="start" x="8" y="-124.6" font-family="Times,serif" font-size="13.00">Date: Apr 24 2015 &#45; 13:55</text>
<text text-anchor="start" x="8" y="-110.6" font-family="Times,serif" font-size="13.00">Migration version: 20150303134324</text>
<text text-anchor="start" x="8" y="-96.6" font-family="Times,serif" font-size="13.00">Generated by RailRoady 1.3.0</text>
<text text-anchor="start" x="8" y="-82.6" font-family="Times,serif" font-size="13.00">http://railroady.prestonlee.com</text>
</g>
<!-- HomeController -->
<g id="node2" class="node"><title>HomeController</title>
<path fill="none" stroke="black" d="M252,-0.5C252,-0.5 334,-0.5 334,-0.5 340,-0.5 346,-6.5 346,-12.5 346,-12.5 346,-81.5 346,-81.5 346,-87.5 340,-93.5 334,-93.5 334,-93.5 252,-93.5 252,-93.5 246,-93.5 240,-87.5 240,-81.5 240,-81.5 240,-12.5 240,-12.5 240,-6.5 246,-0.5 252,-0.5"/>
<text text-anchor="middle" x="293" y="-78.3" font-family="Times,serif" font-size="14.00">HomeController</text>
<polyline fill="none" stroke="black" points="240,-70.5 346,-70.5 "/>
<text text-anchor="start" x="248" y="-55.3" font-family="Times,serif" font-size="14.00">index</text>
<polyline fill="none" stroke="black" points="240,-47.5 346,-47.5 "/>
<polyline fill="none" stroke="black" points="240,-23.5 346,-23.5 "/>
<text text-anchor="start" x="248" y="-8.3" font-family="Times,serif" font-size="14.00">_layout</text>
</g>
<!-- ClientsController -->
<g id="node3" class="node"><title>ClientsController</title>
<path fill="none" stroke="black" d="M192,-180.5C192,-180.5 278,-180.5 278,-180.5 284,-180.5 290,-186.5 290,-192.5 290,-192.5 290,-336.5 290,-336.5 290,-342.5 284,-348.5 278,-348.5 278,-348.5 192,-348.5 192,-348.5 186,-348.5 180,-342.5 180,-336.5 180,-336.5 180,-192.5 180,-192.5 180,-186.5 186,-180.5 192,-180.5"/>
<text text-anchor="middle" x="235" y="-333.3" font-family="Times,serif" font-size="14.00">ClientsController</text>
<polyline fill="none" stroke="black" points="180,-325.5 290,-325.5 "/>
<text text-anchor="start" x="188" y="-310.3" font-family="Times,serif" font-size="14.00">create</text>
<text text-anchor="start" x="188" y="-295.3" font-family="Times,serif" font-size="14.00">destroy</text>
<text text-anchor="start" x="188" y="-280.3" font-family="Times,serif" font-size="14.00">edit</text>
<text text-anchor="start" x="188" y="-265.3" font-family="Times,serif" font-size="14.00">index</text>
<text text-anchor="start" x="188" y="-250.3" font-family="Times,serif" font-size="14.00">new</text>
<text text-anchor="start" x="188" y="-235.3" font-family="Times,serif" font-size="14.00">update</text>
<polyline fill="none" stroke="black" points="180,-227.5 290,-227.5 "/>
<polyline fill="none" stroke="black" points="180,-203.5 290,-203.5 "/>
<text text-anchor="start" x="188" y="-188.3" font-family="Times,serif" font-size="14.00">_layout</text>
</g>
<!-- ApplicationController -->
<g id="node4" class="node"><title>ApplicationController</title>
<path fill="none" stroke="black" d="M27,-225.5C27,-225.5 139,-225.5 139,-225.5 145,-225.5 151,-231.5 151,-237.5 151,-237.5 151,-307.5 151,-307.5 151,-313.5 145,-319.5 139,-319.5 139,-319.5 27,-319.5 27,-319.5 21,-319.5 15,-313.5 15,-307.5 15,-307.5 15,-237.5 15,-237.5 15,-231.5 21,-225.5 27,-225.5"/>
<text text-anchor="middle" x="83" y="-304.3" font-family="Times,serif" font-size="14.00">ApplicationController</text>
<polyline fill="none" stroke="black" points="15,-296.5 151,-296.5 "/>
<polyline fill="none" stroke="black" points="15,-272.5 151,-272.5 "/>
<polyline fill="none" stroke="black" points="15,-248.5 151,-248.5 "/>
<text text-anchor="start" x="23" y="-233.3" font-family="Times,serif" font-size="14.00">_layout</text>
</g>
</g>
</svg>
