<?xml version="1.0" encoding="UTF-8" standalone="no"?>
<!DOCTYPE svg PUBLIC "-//W3C//DTD SVG 1.1//EN"
 "http://www.w3.org/Graphics/SVG/1.1/DTD/svg11.dtd">
<!-- Generated by graphviz version 2.36.0 (20140111.2315)
 -->
<!-- Title: models_diagram Pages: 1 -->
<svg width="890pt" height="1034pt"
 viewBox="0.00 0.00 890.00 1034.00" xmlns="http://www.w3.org/2000/svg" xmlns:xlink="http://www.w3.org/1999/xlink">
<g id="graph0" class="graph" transform="scale(1 1) rotate(0) translate(4 1030)">
<title>models_diagram</title>
<polygon fill="white" stroke="none" points="-4,4 -4,-1030 886,-1030 886,4 -4,4"/>
<!-- _diagram_info -->
<g id="node1" class="node"><title>_diagram_info</title>
<text text-anchor="start" x="7" y="-981.6" font-family="Times,serif" font-size="13.00">Models diagram</text>
<text text-anchor="start" x="7" y="-967.6" font-family="Times,serif" font-size="13.00">Date: Apr 24 2015 &#45; 13:55</text>
<text text-anchor="start" x="7" y="-953.6" font-family="Times,serif" font-size="13.00">Migration version: 20150303134324</text>
<text text-anchor="start" x="7" y="-939.6" font-family="Times,serif" font-size="13.00">Generated by RailRoady 1.3.0</text>
<text text-anchor="start" x="7" y="-925.6" font-family="Times,serif" font-size="13.00">http://railroady.prestonlee.com</text>
</g>
<!-- Address -->
<g id="node2" class="node"><title>Address</title>
<path fill="none" stroke="black" d="M24.5,-196.5C24.5,-196.5 131.5,-196.5 131.5,-196.5 137.5,-196.5 143.5,-202.5 143.5,-208.5 143.5,-208.5 143.5,-365.5 143.5,-365.5 143.5,-371.5 137.5,-377.5 131.5,-377.5 131.5,-377.5 24.5,-377.5 24.5,-377.5 18.5,-377.5 12.5,-371.5 12.5,-365.5 12.5,-365.5 12.5,-208.5 12.5,-208.5 12.5,-202.5 18.5,-196.5 24.5,-196.5"/>
<text text-anchor="middle" x="78" y="-362.3" font-family="Times,serif" font-size="14.00">Address</text>
<polyline fill="none" stroke="black" points="12.5,-354.5 143.5,-354.5 "/>
<text text-anchor="start" x="20.5" y="-339.3" font-family="Times,serif" font-size="14.00">id :integer</text>
<text text-anchor="start" x="20.5" y="-324.3" font-family="Times,serif" font-size="14.00">country_id :integer</text>
<text text-anchor="start" x="20.5" y="-309.3" font-family="Times,serif" font-size="14.00">street_1 :string</text>
<text text-anchor="start" x="20.5" y="-294.3" font-family="Times,serif" font-size="14.00">street_2 :string</text>
<text text-anchor="start" x="20.5" y="-279.3" font-family="Times,serif" font-size="14.00">city :string</text>
<text text-anchor="start" x="20.5" y="-264.3" font-family="Times,serif" font-size="14.00">state :string</text>
<text text-anchor="start" x="20.5" y="-249.3" font-family="Times,serif" font-size="14.00">pincode :integer</text>
<text text-anchor="start" x="20.5" y="-234.3" font-family="Times,serif" font-size="14.00">client_id :integer</text>
<text text-anchor="start" x="20.5" y="-219.3" font-family="Times,serif" font-size="14.00">created_at :datetime</text>
<text text-anchor="start" x="20.5" y="-204.3" font-family="Times,serif" font-size="14.00">updated_at :datetime</text>
</g>
<!-- Client -->
<g id="node3" class="node"><title>Client</title>
<path fill="none" stroke="black" d="M173.5,-452.5C173.5,-452.5 280.5,-452.5 280.5,-452.5 286.5,-452.5 292.5,-458.5 292.5,-464.5 292.5,-464.5 292.5,-561.5 292.5,-561.5 292.5,-567.5 286.5,-573.5 280.5,-573.5 280.5,-573.5 173.5,-573.5 173.5,-573.5 167.5,-573.5 161.5,-567.5 161.5,-561.5 161.5,-561.5 161.5,-464.5 161.5,-464.5 161.5,-458.5 167.5,-452.5 173.5,-452.5"/>
<text text-anchor="middle" x="227" y="-558.3" font-family="Times,serif" font-size="14.00">Client</text>
<polyline fill="none" stroke="black" points="161.5,-550.5 292.5,-550.5 "/>
<text text-anchor="start" x="169.5" y="-535.3" font-family="Times,serif" font-size="14.00">id :integer</text>
<text text-anchor="start" x="169.5" y="-520.3" font-family="Times,serif" font-size="14.00">company_id :integer</text>
<text text-anchor="start" x="169.5" y="-505.3" font-family="Times,serif" font-size="14.00">currency_id :integer</text>
<text text-anchor="start" x="169.5" y="-490.3" font-family="Times,serif" font-size="14.00">notes :string</text>
<text text-anchor="start" x="169.5" y="-475.3" font-family="Times,serif" font-size="14.00">created_at :datetime</text>
<text text-anchor="start" x="169.5" y="-460.3" font-family="Times,serif" font-size="14.00">updated_at :datetime</text>
</g>
<!-- Client&#45;&gt;Address -->
<g id="edge1" class="edge"><title>Client&#45;&gt;Address</title>
<path fill="none" stroke="#275867" d="M173.404,-445.848C165.992,-436.002 158.648,-425.851 152,-416 145.286,-406.052 138.556,-395.467 132.039,-384.811"/>
<ellipse fill="none" stroke="#275867" cx="175.86" cy="-449.082" rx="4.00002" ry="4.00002"/>
<ellipse fill="#275867" stroke="#275867" cx="129.864" cy="-381.224" rx="4.00002" ry="4.00002"/>
</g>
<!-- ContactDetail -->
<g id="node9" class="node"><title>ContactDetail</title>
<path fill="none" stroke="black" d="M173.5,-204C173.5,-204 280.5,-204 280.5,-204 286.5,-204 292.5,-210 292.5,-216 292.5,-216 292.5,-358 292.5,-358 292.5,-364 286.5,-370 280.5,-370 280.5,-370 173.5,-370 173.5,-370 167.5,-370 161.5,-364 161.5,-358 161.5,-358 161.5,-216 161.5,-216 161.5,-210 167.5,-204 173.5,-204"/>
<text text-anchor="middle" x="227" y="-354.8" font-family="Times,serif" font-size="14.00">ContactDetail</text>
<polyline fill="none" stroke="black" points="161.5,-347 292.5,-347 "/>
<text text-anchor="start" x="169.5" y="-331.8" font-family="Times,serif" font-size="14.00">id :integer</text>
<text text-anchor="start" x="169.5" y="-316.8" font-family="Times,serif" font-size="14.00">email :string</text>
<text text-anchor="start" x="169.5" y="-301.8" font-family="Times,serif" font-size="14.00">first_name :string</text>
<text text-anchor="start" x="169.5" y="-286.8" font-family="Times,serif" font-size="14.00">last_name :string</text>
<text text-anchor="start" x="169.5" y="-271.8" font-family="Times,serif" font-size="14.00">phone :string</text>
<text text-anchor="start" x="169.5" y="-256.8" font-family="Times,serif" font-size="14.00">mobile :string</text>
<text text-anchor="start" x="169.5" y="-241.8" font-family="Times,serif" font-size="14.00">client_id :integer</text>
<text text-anchor="start" x="169.5" y="-226.8" font-family="Times,serif" font-size="14.00">created_at :datetime</text>
<text text-anchor="start" x="169.5" y="-211.8" font-family="Times,serif" font-size="14.00">updated_at :datetime</text>
</g>
<!-- Client&#45;&gt;ContactDetail -->
<g id="edge2" class="edge"><title>Client&#45;&gt;ContactDetail</title>
<path fill="none" stroke="#d342c0" d="M227,-444.168C227,-424.074 227,-401.722 227,-380.355"/>
<ellipse fill="none" stroke="#d342c0" cx="227" cy="-448.266" rx="4" ry="4"/>
<polygon fill="#d342c0" stroke="#d342c0" points="227,-380.29 231.5,-370.29 227,-375.29 227,-370.29 227,-370.29 227,-370.29 227,-375.29 222.5,-370.29 227,-380.29 227,-380.29"/>
</g>
<!-- Invoice -->
<g id="node12" class="node"><title>Invoice</title>
<path fill="none" stroke="black" d="M323,-159C323,-159 445,-159 445,-159 451,-159 457,-165 457,-171 457,-171 457,-403 457,-403 457,-409 451,-415 445,-415 445,-415 323,-415 323,-415 317,-415 311,-409 311,-403 311,-403 311,-171 311,-171 311,-165 317,-159 323,-159"/>
<text text-anchor="middle" x="384" y="-399.8" font-family="Times,serif" font-size="14.00">Invoice</text>
<polyline fill="none" stroke="black" points="311,-392 457,-392 "/>
<text text-anchor="start" x="319" y="-376.8" font-family="Times,serif" font-size="14.00">id :integer</text>
<text text-anchor="start" x="319" y="-361.8" font-family="Times,serif" font-size="14.00">client_id :integer</text>
<text text-anchor="start" x="319" y="-346.8" font-family="Times,serif" font-size="14.00">invoice_number :string</text>
<text text-anchor="start" x="319" y="-331.8" font-family="Times,serif" font-size="14.00">date_of_issue :datetime</text>
<text text-anchor="start" x="319" y="-316.8" font-family="Times,serif" font-size="14.00">po_number :string</text>
<text text-anchor="start" x="319" y="-301.8" font-family="Times,serif" font-size="14.00">discount :float</text>
<text text-anchor="start" x="319" y="-286.8" font-family="Times,serif" font-size="14.00">subtotal :float</text>
<text text-anchor="start" x="319" y="-271.8" font-family="Times,serif" font-size="14.00">total :float</text>
<text text-anchor="start" x="319" y="-256.8" font-family="Times,serif" font-size="14.00">paid_to_date :datetime</text>
<text text-anchor="start" x="319" y="-241.8" font-family="Times,serif" font-size="14.00">balance :float</text>
<text text-anchor="start" x="319" y="-226.8" font-family="Times,serif" font-size="14.00">notes :string</text>
<text text-anchor="start" x="319" y="-211.8" font-family="Times,serif" font-size="14.00">terms :text</text>
<text text-anchor="start" x="319" y="-196.8" font-family="Times,serif" font-size="14.00">payment_days :integer</text>
<text text-anchor="start" x="319" y="-181.8" font-family="Times,serif" font-size="14.00">created_at :datetime</text>
<text text-anchor="start" x="319" y="-166.8" font-family="Times,serif" font-size="14.00">updated_at :datetime</text>
</g>
<!-- Client&#45;&gt;Invoice -->
<g id="edge3" class="edge"><title>Client&#45;&gt;Invoice</title>
<path fill="none" stroke="#2aad5c" d="M279.06,-445.912C286.554,-435.984 294.068,-425.792 301,-416 302.337,-414.112 303.679,-412.204 305.024,-410.279"/>
<ellipse fill="none" stroke="#2aad5c" cx="276.563" cy="-449.204" rx="4.00002" ry="4.00002"/>
<polygon fill="#2aad5c" stroke="#2aad5c" points="305.243,-409.963 314.638,-404.307 308.091,-405.853 310.94,-401.744 310.94,-401.744 310.94,-401.744 308.091,-405.853 307.241,-399.18 305.243,-409.963 305.243,-409.963"/>
</g>
<!-- Item -->
<g id="node4" class="node"><title>Item</title>
<path fill="none" stroke="black" d="M465.5,-889C465.5,-889 572.5,-889 572.5,-889 578.5,-889 584.5,-895 584.5,-901 584.5,-901 584.5,-1013 584.5,-1013 584.5,-1019 578.5,-1025 572.5,-1025 572.5,-1025 465.5,-1025 465.5,-1025 459.5,-1025 453.5,-1019 453.5,-1013 453.5,-1013 453.5,-901 453.5,-901 453.5,-895 459.5,-889 465.5,-889"/>
<text text-anchor="middle" x="519" y="-1009.8" font-family="Times,serif" font-size="14.00">Item</text>
<polyline fill="none" stroke="black" points="453.5,-1002 584.5,-1002 "/>
<text text-anchor="start" x="461.5" y="-986.8" font-family="Times,serif" font-size="14.00">id :integer</text>
<text text-anchor="start" x="461.5" y="-971.8" font-family="Times,serif" font-size="14.00">name :string</text>
<text text-anchor="start" x="461.5" y="-956.8" font-family="Times,serif" font-size="14.00">description :string</text>
<text text-anchor="start" x="461.5" y="-941.8" font-family="Times,serif" font-size="14.00">price :float</text>
<text text-anchor="start" x="461.5" y="-926.8" font-family="Times,serif" font-size="14.00">quantity :integer</text>
<text text-anchor="start" x="461.5" y="-911.8" font-family="Times,serif" font-size="14.00">created_at :datetime</text>
<text text-anchor="start" x="461.5" y="-896.8" font-family="Times,serif" font-size="14.00">updated_at :datetime</text>
</g>
<!-- Tax -->
<g id="node10" class="node"><title>Tax</title>
<path fill="none" stroke="black" d="M465.5,-678C465.5,-678 572.5,-678 572.5,-678 578.5,-678 584.5,-684 584.5,-690 584.5,-690 584.5,-772 584.5,-772 584.5,-778 578.5,-784 572.5,-784 572.5,-784 465.5,-784 465.5,-784 459.5,-784 453.5,-778 453.5,-772 453.5,-772 453.5,-690 453.5,-690 453.5,-684 459.5,-678 465.5,-678"/>
<text text-anchor="middle" x="519" y="-768.8" font-family="Times,serif" font-size="14.00">Tax</text>
<polyline fill="none" stroke="black" points="453.5,-761 584.5,-761 "/>
<text text-anchor="start" x="461.5" y="-745.8" font-family="Times,serif" font-size="14.00">id :integer</text>
<text text-anchor="start" x="461.5" y="-730.8" font-family="Times,serif" font-size="14.00">deduction :float</text>
<text text-anchor="start" x="461.5" y="-715.8" font-family="Times,serif" font-size="14.00">description :string</text>
<text text-anchor="start" x="461.5" y="-700.8" font-family="Times,serif" font-size="14.00">created_at :datetime</text>
<text text-anchor="start" x="461.5" y="-685.8" font-family="Times,serif" font-size="14.00">updated_at :datetime</text>
</g>
<!-- Item&#45;&gt;Tax -->
<g id="edge4" class="edge"><title>Item&#45;&gt;Tax</title>
<path fill="none" stroke="#b6a43b" d="M519,-880.426C519,-852.504 519,-821.193 519,-794.552"/>
<ellipse fill="none" stroke="#b6a43b" cx="519" cy="-884.793" rx="4" ry="4"/>
<polygon fill="#b6a43b" stroke="#b6a43b" points="519,-794.209 523.5,-784.209 519,-789.209 519,-784.209 519,-784.209 519,-784.209 519,-789.209 514.5,-784.209 519,-794.209 519,-794.209"/>
</g>
<!-- Currency -->
<g id="node5" class="node"><title>Currency</title>
<path fill="none" stroke="black" d="M614.5,-904C614.5,-904 721.5,-904 721.5,-904 727.5,-904 733.5,-910 733.5,-916 733.5,-916 733.5,-998 733.5,-998 733.5,-1004 727.5,-1010 721.5,-1010 721.5,-1010 614.5,-1010 614.5,-1010 608.5,-1010 602.5,-1004 602.5,-998 602.5,-998 602.5,-916 602.5,-916 602.5,-910 608.5,-904 614.5,-904"/>
<text text-anchor="middle" x="668" y="-994.8" font-family="Times,serif" font-size="14.00">Currency</text>
<polyline fill="none" stroke="black" points="602.5,-987 733.5,-987 "/>
<text text-anchor="start" x="610.5" y="-971.8" font-family="Times,serif" font-size="14.00">id :integer</text>
<text text-anchor="start" x="610.5" y="-956.8" font-family="Times,serif" font-size="14.00">code :string</text>
<text text-anchor="start" x="610.5" y="-941.8" font-family="Times,serif" font-size="14.00">name :string</text>
<text text-anchor="start" x="610.5" y="-926.8" font-family="Times,serif" font-size="14.00">created_at :datetime</text>
<text text-anchor="start" x="610.5" y="-911.8" font-family="Times,serif" font-size="14.00">updated_at :datetime</text>
</g>
<!-- Country -->
<g id="node6" class="node"><title>Country</title>
<path fill="none" stroke="black" d="M763.5,-904C763.5,-904 870.5,-904 870.5,-904 876.5,-904 882.5,-910 882.5,-916 882.5,-916 882.5,-998 882.5,-998 882.5,-1004 876.5,-1010 870.5,-1010 870.5,-1010 763.5,-1010 763.5,-1010 757.5,-1010 751.5,-1004 751.5,-998 751.5,-998 751.5,-916 751.5,-916 751.5,-910 757.5,-904 763.5,-904"/>
<text text-anchor="middle" x="817" y="-994.8" font-family="Times,serif" font-size="14.00">Country</text>
<polyline fill="none" stroke="black" points="751.5,-987 882.5,-987 "/>
<text text-anchor="start" x="759.5" y="-971.8" font-family="Times,serif" font-size="14.00">id :integer</text>
<text text-anchor="start" x="759.5" y="-956.8" font-family="Times,serif" font-size="14.00">code :string</text>
<text text-anchor="start" x="759.5" y="-941.8" font-family="Times,serif" font-size="14.00">name :string</text>
<text text-anchor="start" x="759.5" y="-926.8" font-family="Times,serif" font-size="14.00">created_at :datetime</text>
<text text-anchor="start" x="759.5" y="-911.8" font-family="Times,serif" font-size="14.00">updated_at :datetime</text>
</g>
<!-- User -->
<g id="node7" class="node"><title>User</title>
<path fill="none" stroke="black" d="M209,-610.5C209,-610.5 385,-610.5 385,-610.5 391,-610.5 397,-616.5 397,-622.5 397,-622.5 397,-839.5 397,-839.5 397,-845.5 391,-851.5 385,-851.5 385,-851.5 209,-851.5 209,-851.5 203,-851.5 197,-845.5 197,-839.5 197,-839.5 197,-622.5 197,-622.5 197,-616.5 203,-610.5 209,-610.5"/>
<text text-anchor="middle" x="297" y="-836.3" font-family="Times,serif" font-size="14.00">User</text>
<polyline fill="none" stroke="black" points="197,-828.5 397,-828.5 "/>
<text text-anchor="start" x="205" y="-813.3" font-family="Times,serif" font-size="14.00">id :integer</text>
<text text-anchor="start" x="205" y="-798.3" font-family="Times,serif" font-size="14.00">email :string</text>
<text text-anchor="start" x="205" y="-783.3" font-family="Times,serif" font-size="14.00">encrypted_password :string</text>
<text text-anchor="start" x="205" y="-768.3" font-family="Times,serif" font-size="14.00">reset_password_token :string</text>
<text text-anchor="start" x="205" y="-753.3" font-family="Times,serif" font-size="14.00">reset_password_sent_at :datetime</text>
<text text-anchor="start" x="205" y="-738.3" font-family="Times,serif" font-size="14.00">remember_created_at :datetime</text>
<text text-anchor="start" x="205" y="-723.3" font-family="Times,serif" font-size="14.00">sign_in_count :integer</text>
<text text-anchor="start" x="205" y="-708.3" font-family="Times,serif" font-size="14.00">current_sign_in_at :datetime</text>
<text text-anchor="start" x="205" y="-693.3" font-family="Times,serif" font-size="14.00">last_sign_in_at :datetime</text>
<text text-anchor="start" x="205" y="-678.3" font-family="Times,serif" font-size="14.00">created_at :datetime</text>
<text text-anchor="start" x="205" y="-663.3" font-family="Times,serif" font-size="14.00">updated_at :datetime</text>
<text text-anchor="start" x="205" y="-648.3" font-family="Times,serif" font-size="14.00">first_name :string</text>
<text text-anchor="start" x="205" y="-633.3" font-family="Times,serif" font-size="14.00">last_name :string</text>
<text text-anchor="start" x="205" y="-618.3" font-family="Times,serif" font-size="14.00">company_id :integer</text>
</g>
<!-- User&#45;&gt;Client -->
<g id="edge6" class="edge"><title>User&#45;&gt;Client</title>
<path fill="none" stroke="#aa5518" d="M255.059,-600.582C253.181,-594.786 251.33,-589.075 249.53,-583.521"/>
<polygon fill="#aa5518" stroke="#aa5518" points="255.13,-600.8 253.932,-611.701 256.671,-605.557 258.213,-610.313 258.213,-610.313 258.213,-610.313 256.671,-605.557 262.493,-608.926 255.13,-600.8 255.13,-600.8"/>
<polygon fill="#aa5518" stroke="#aa5518" points="249.433,-583.221 250.631,-572.32 247.891,-578.464 246.35,-573.708 246.35,-573.708 246.35,-573.708 247.891,-578.464 242.069,-575.095 249.433,-583.221 249.433,-583.221"/>
</g>
<!-- User&#45;&gt;Invoice -->
<g id="edge5" class="edge"><title>User&#45;&gt;Invoice</title>
<path fill="none" stroke="#3747b5" d="M322.518,-600.357C333.367,-545.241 346.026,-480.926 357.028,-425.03"/>
<polygon fill="#3747b5" stroke="#3747b5" points="322.475,-600.577 316.128,-609.519 321.509,-605.483 320.543,-610.388 320.543,-610.388 320.543,-610.388 321.509,-605.483 324.959,-611.258 322.475,-600.577 322.475,-600.577"/>
<polygon fill="#3747b5" stroke="#3747b5" points="357.06,-424.868 363.406,-415.925 358.026,-419.962 358.991,-415.056 358.991,-415.056 358.991,-415.056 358.026,-419.962 354.576,-414.187 357.06,-424.868 357.06,-424.868"/>
</g>
<!-- LineItem -->
<g id="node8" class="node"><title>LineItem</title>
<path fill="none" stroke="black" d="M330.5,-0.5C330.5,-0.5 437.5,-0.5 437.5,-0.5 443.5,-0.5 449.5,-6.5 449.5,-12.5 449.5,-12.5 449.5,-109.5 449.5,-109.5 449.5,-115.5 443.5,-121.5 437.5,-121.5 437.5,-121.5 330.5,-121.5 330.5,-121.5 324.5,-121.5 318.5,-115.5 318.5,-109.5 318.5,-109.5 318.5,-12.5 318.5,-12.5 318.5,-6.5 324.5,-0.5 330.5,-0.5"/>
<text text-anchor="middle" x="384" y="-106.3" font-family="Times,serif" font-size="14.00">LineItem</text>
<polyline fill="none" stroke="black" points="318.5,-98.5 449.5,-98.5 "/>
<text text-anchor="start" x="326.5" y="-83.3" font-family="Times,serif" font-size="14.00">id :integer</text>
<text text-anchor="start" x="326.5" y="-68.3" font-family="Times,serif" font-size="14.00">item_id :integer</text>
<text text-anchor="start" x="326.5" y="-53.3" font-family="Times,serif" font-size="14.00">invoice_id :integer</text>
<text text-anchor="start" x="326.5" y="-38.3" font-family="Times,serif" font-size="14.00">line_total :integer</text>
<text text-anchor="start" x="326.5" y="-23.3" font-family="Times,serif" font-size="14.00">created_at :datetime</text>
<text text-anchor="start" x="326.5" y="-8.3" font-family="Times,serif" font-size="14.00">updated_at :datetime</text>
</g>
<!-- Company -->
<g id="node11" class="node"><title>Company</title>
<path fill="none" stroke="black" d="M243.5,-911.5C243.5,-911.5 350.5,-911.5 350.5,-911.5 356.5,-911.5 362.5,-917.5 362.5,-923.5 362.5,-923.5 362.5,-990.5 362.5,-990.5 362.5,-996.5 356.5,-1002.5 350.5,-1002.5 350.5,-1002.5 243.5,-1002.5 243.5,-1002.5 237.5,-1002.5 231.5,-996.5 231.5,-990.5 231.5,-990.5 231.5,-923.5 231.5,-923.5 231.5,-917.5 237.5,-911.5 243.5,-911.5"/>
<text text-anchor="middle" x="297" y="-987.3" font-family="Times,serif" font-size="14.00">Company</text>
<polyline fill="none" stroke="black" points="231.5,-979.5 362.5,-979.5 "/>
<text text-anchor="start" x="239.5" y="-964.3" font-family="Times,serif" font-size="14.00">id :integer</text>
<text text-anchor="start" x="239.5" y="-949.3" font-family="Times,serif" font-size="14.00">name :string</text>
<text text-anchor="start" x="239.5" y="-934.3" font-family="Times,serif" font-size="14.00">created_at :datetime</text>
<text text-anchor="start" x="239.5" y="-919.3" font-family="Times,serif" font-size="14.00">updated_at :datetime</text>
</g>
<!-- Company&#45;&gt;Client -->
<g id="edge8" class="edge"><title>Company&#45;&gt;Client</title>
<path fill="none" stroke="#5b9729" d="M240.803,-905.964C215.747,-883.014 191.121,-859.29 188,-852 145.677,-753.121 167.377,-715.56 188,-610 189.735,-601.118 192.294,-592.02 195.287,-583.134"/>
<ellipse fill="none" stroke="#5b9729" cx="243.872" cy="-908.764" rx="4.00002" ry="4.00002"/>
<polygon fill="#5b9729" stroke="#5b9729" points="195.329,-583.015 202.924,-575.105 197.007,-578.305 198.685,-573.595 198.685,-573.595 198.685,-573.595 197.007,-578.305 194.446,-572.084 195.329,-583.015 195.329,-583.015"/>
</g>
<!-- Company&#45;&gt;User -->
<g id="edge7" class="edge"><title>Company&#45;&gt;User</title>
<path fill="none" stroke="#799c58" d="M297,-903.472C297,-890.708 297,-876.492 297,-861.858"/>
<ellipse fill="none" stroke="#799c58" cx="297" cy="-907.477" rx="4" ry="4"/>
<polygon fill="#799c58" stroke="#799c58" points="297,-861.673 301.5,-851.673 297,-856.673 297,-851.673 297,-851.673 297,-851.673 297,-856.673 292.5,-851.673 297,-861.673 297,-861.673"/>
</g>
<!-- Company&#45;&gt;Invoice -->
<g id="edge9" class="edge"><title>Company&#45;&gt;Invoice</title>
<path fill="none" stroke="#e67033" d="M368.12,-904.304C383.469,-889.318 397.597,-871.631 406,-852 464.414,-715.528 445.99,-543.071 421.211,-425.008"/>
<polygon fill="#e67033" stroke="#e67033" points="367.803,-904.602 357.43,-908.158 364.155,-908.021 360.508,-911.441 360.508,-911.441 360.508,-911.441 364.155,-908.021 363.585,-914.724 367.803,-904.602 367.803,-904.602"/>
<polygon fill="#e67033" stroke="#e67033" points="421.201,-424.96 423.508,-414.24 420.155,-420.071 419.108,-415.182 419.108,-415.182 419.108,-415.182 420.155,-420.071 414.708,-416.124 421.201,-424.96 421.201,-424.96"/>
</g>
<!-- Invoice&#45;&gt;LineItem -->
<g id="edge10" class="edge"><title>Invoice&#45;&gt;LineItem</title>
<path fill="none" stroke="#1508d1" d="M384,-150.804C384,-144.339 384,-137.982 384,-131.825"/>
<ellipse fill="none" stroke="#1508d1" cx="384" cy="-154.947" rx="4" ry="4"/>
<polygon fill="#1508d1" stroke="#1508d1" points="384,-131.666 388.5,-121.666 384,-126.666 384,-121.666 384,-121.666 384,-121.666 384,-126.666 379.5,-121.666 384,-131.666 384,-131.666"/>
</g>
</g>
</svg>
