<?xml version="1.0" encoding="UTF-8" standalone="no"?>
<!DOCTYPE svg PUBLIC "-//W3C//DTD SVG 1.1//EN"
 "http://www.w3.org/Graphics/SVG/1.1/DTD/svg11.dtd">
<!-- Generated by graphviz version 2.36.0 (20140111.2315)
 -->
<!-- Title: models_diagram Pages: 1 -->
<svg width="623pt" height="374pt"
 viewBox="0.00 0.00 623.00 374.00" xmlns="http://www.w3.org/2000/svg" xmlns:xlink="http://www.w3.org/1999/xlink">
<g id="graph0" class="graph" transform="scale(1 1) rotate(0) translate(4 370)">
<title>models_diagram</title>
<polygon fill="white" stroke="none" points="-4,4 -4,-370 619,-370 619,4 -4,4"/>
<!-- _diagram_info -->
<g id="node1" class="node"><title>_diagram_info</title>
<text text-anchor="start" x="7" y="-351.6" font-family="Times,serif" font-size="13.00">Models diagram</text>
<text text-anchor="start" x="7" y="-337.6" font-family="Times,serif" font-size="13.00">Date: Apr 24 2015 &#45; 13:55</text>
<text text-anchor="start" x="7" y="-323.6" font-family="Times,serif" font-size="13.00">Migration version: 20150303134324</text>
<text text-anchor="start" x="7" y="-309.6" font-family="Times,serif" font-size="13.00">Generated by RailRoady 1.3.0</text>
<text text-anchor="start" x="7" y="-295.6" font-family="Times,serif" font-size="13.00">http://railroady.prestonlee.com</text>
</g>
<!-- Address -->
<g id="node2" class="node"><title>Address</title>
<ellipse fill="none" stroke="black" cx="99" cy="-90" rx="39.4691" ry="18"/>
<text text-anchor="middle" x="99" y="-86.3" font-family="Times,serif" font-size="14.00">Address</text>
</g>
<!-- Client -->
<g id="node3" class="node"><title>Client</title>
<ellipse fill="none" stroke="black" cx="221" cy="-162" rx="32.2457" ry="18"/>
<text text-anchor="middle" x="221" y="-158.3" font-family="Times,serif" font-size="14.00">Client</text>
</g>
<!-- Client&#45;&gt;Address -->
<g id="edge1" class="edge"><title>Client&#45;&gt;Address</title>
<path fill="none" stroke="#6990a3" d="M192.029,-144.377C173.264,-133.61 148.854,-119.605 129.746,-108.641"/>
<ellipse fill="none" stroke="#6990a3" cx="195.719" cy="-146.495" rx="4.00002" ry="4.00002"/>
<ellipse fill="#6990a3" stroke="#6990a3" cx="126.175" cy="-106.592" rx="4.00002" ry="4.00002"/>
</g>
<!-- ContactDetail -->
<g id="node9" class="node"><title>ContactDetail</title>
<ellipse fill="none" stroke="black" cx="216" cy="-90" rx="59.1941" ry="18"/>
<text text-anchor="middle" x="216" y="-86.3" font-family="Times,serif" font-size="14.00">ContactDetail</text>
</g>
<!-- Client&#45;&gt;ContactDetail -->
<g id="edge2" class="edge"><title>Client&#45;&gt;ContactDetail</title>
<path fill="none" stroke="#398467" d="M219.189,-135.64C218.79,-130.063 218.367,-124.132 217.963,-118.476"/>
<ellipse fill="none" stroke="#398467" cx="219.479" cy="-139.707" rx="4" ry="4"/>
<polygon fill="#398467" stroke="#398467" points="217.934,-118.079 221.71,-107.784 217.578,-113.092 217.222,-108.104 217.222,-108.104 217.222,-108.104 217.578,-113.092 212.733,-108.425 217.934,-118.079 217.934,-118.079"/>
</g>
<!-- Invoice -->
<g id="node12" class="node"><title>Invoice</title>
<ellipse fill="none" stroke="black" cx="331" cy="-90" rx="37.0701" ry="18"/>
<text text-anchor="middle" x="331" y="-86.3" font-family="Times,serif" font-size="14.00">Invoice</text>
</g>
<!-- Client&#45;&gt;Invoice -->
<g id="edge3" class="edge"><title>Client&#45;&gt;Invoice</title>
<path fill="none" stroke="#80de17" d="M248.566,-143.458C264.383,-133.393 284.269,-120.738 300.547,-110.379"/>
<ellipse fill="none" stroke="#80de17" cx="244.807" cy="-145.85" rx="4.00002" ry="4.00002"/>
<polygon fill="#80de17" stroke="#80de17" points="300.733,-110.261 311.586,-108.688 304.952,-107.576 309.17,-104.892 309.17,-104.892 309.17,-104.892 304.952,-107.576 306.754,-101.095 300.733,-110.261 300.733,-110.261"/>
</g>
<!-- Item -->
<g id="node4" class="node"><title>Item</title>
<ellipse fill="none" stroke="black" cx="386" cy="-327" rx="26.949" ry="18"/>
<text text-anchor="middle" x="386" y="-323.3" font-family="Times,serif" font-size="14.00">Item</text>
</g>
<!-- Tax -->
<g id="node10" class="node"><title>Tax</title>
<ellipse fill="none" stroke="black" cx="386" cy="-234" rx="27" ry="18"/>
<text text-anchor="middle" x="386" y="-230.3" font-family="Times,serif" font-size="14.00">Tax</text>
</g>
<!-- Item&#45;&gt;Tax -->
<g id="edge4" class="edge"><title>Item&#45;&gt;Tax</title>
<path fill="none" stroke="#a17b48" d="M386,-300.729C386,-288.725 386,-274.362 386,-262.129"/>
<ellipse fill="none" stroke="#a17b48" cx="386" cy="-304.884" rx="4" ry="4"/>
<polygon fill="#a17b48" stroke="#a17b48" points="386,-262.04 390.5,-252.04 386,-257.04 386,-252.04 386,-252.04 386,-252.04 386,-257.04 381.5,-252.04 386,-262.04 386,-262.04"/>
</g>
<!-- Currency -->
<g id="node5" class="node"><title>Currency</title>
<ellipse fill="none" stroke="black" cx="475" cy="-327" rx="43.319" ry="18"/>
<text text-anchor="middle" x="475" y="-323.3" font-family="Times,serif" font-size="14.00">Currency</text>
</g>
<!-- Country -->
<g id="node6" class="node"><title>Country</title>
<ellipse fill="none" stroke="black" cx="576" cy="-327" rx="39.4691" ry="18"/>
<text text-anchor="middle" x="576" y="-323.3" font-family="Times,serif" font-size="14.00">Country</text>
</g>
<!-- User -->
<g id="node7" class="node"><title>User</title>
<ellipse fill="none" stroke="black" cx="276" cy="-234" rx="26.949" ry="18"/>
<text text-anchor="middle" x="276" y="-230.3" font-family="Times,serif" font-size="14.00">User</text>
</g>
<!-- User&#45;&gt;Client -->
<g id="edge6" class="edge"><title>User&#45;&gt;Client</title>
<path fill="none" stroke="#66e94d" d="M257.678,-209.681C251.916,-202.347 245.546,-194.241 239.754,-186.869"/>
<polygon fill="#66e94d" stroke="#66e94d" points="257.888,-209.948 260.527,-220.591 260.977,-213.879 264.066,-217.811 264.066,-217.811 264.066,-217.811 260.977,-213.879 267.604,-215.031 257.888,-209.948 257.888,-209.948"/>
<polygon fill="#66e94d" stroke="#66e94d" points="239.47,-186.507 236.83,-175.864 236.381,-182.576 233.292,-178.644 233.292,-178.644 233.292,-178.644 236.381,-182.576 229.753,-181.424 239.47,-186.507 239.47,-186.507"/>
</g>
<!-- User&#45;&gt;Invoice -->
<g id="edge5" class="edge"><title>User&#45;&gt;Invoice</title>
<path fill="none" stroke="#b22e23" d="M286.073,-206.994C295.937,-181.526 310.89,-142.921 320.798,-117.34"/>
<polygon fill="#b22e23" stroke="#b22e23" points="286.029,-207.108 278.221,-214.808 284.223,-211.77 282.417,-216.433 282.417,-216.433 282.417,-216.433 284.223,-211.77 286.613,-218.058 286.029,-207.108 286.029,-207.108"/>
<polygon fill="#b22e23" stroke="#b22e23" points="320.842,-117.227 328.65,-109.527 322.648,-112.564 324.454,-107.902 324.454,-107.902 324.454,-107.902 322.648,-112.564 320.257,-106.276 320.842,-117.227 320.842,-117.227"/>
</g>
<!-- LineItem -->
<g id="node8" class="node"><title>LineItem</title>
<ellipse fill="none" stroke="black" cx="331" cy="-18" rx="43.319" ry="18"/>
<text text-anchor="middle" x="331" y="-14.3" font-family="Times,serif" font-size="14.00">LineItem</text>
</g>
<!-- Company -->
<g id="node11" class="node"><title>Company</title>
<ellipse fill="none" stroke="black" cx="276" cy="-327" rx="45.244" ry="18"/>
<text text-anchor="middle" x="276" y="-323.3" font-family="Times,serif" font-size="14.00">Company</text>
</g>
<!-- Company&#45;&gt;Client -->
<g id="edge8" class="edge"><title>Company&#45;&gt;Client</title>
<path fill="none" stroke="#c9ba11" d="M262.36,-301.771C254.869,-287.62 245.925,-269.211 240,-252 233.025,-231.739 228.108,-207.967 225.026,-190.091"/>
<ellipse fill="none" stroke="#c9ba11" cx="264.445" cy="-305.639" rx="4.00002" ry="4.00002"/>
<polygon fill="#c9ba11" stroke="#c9ba11" points="225,-189.93 227.822,-179.334 224.191,-184.996 223.382,-180.062 223.382,-180.062 223.382,-180.062 224.191,-184.996 218.941,-180.79 225,-189.93 225,-189.93"/>
</g>
<!-- Company&#45;&gt;User -->
<g id="edge7" class="edge"><title>Company&#45;&gt;User</title>
<path fill="none" stroke="#4dcc6a" d="M276,-300.729C276,-288.725 276,-274.362 276,-262.129"/>
<ellipse fill="none" stroke="#4dcc6a" cx="276" cy="-304.884" rx="4" ry="4"/>
<polygon fill="#4dcc6a" stroke="#4dcc6a" points="276,-262.04 280.5,-252.04 276,-257.04 276,-252.04 276,-252.04 276,-252.04 276,-257.04 271.5,-252.04 276,-262.04 276,-262.04"/>
</g>
<!-- Company&#45;&gt;Invoice -->
<g id="edge9" class="edge"><title>Company&#45;&gt;Invoice</title>
<path fill="none" stroke="#b8ce56" d="M291.109,-300.382C298.597,-286.515 307.07,-268.82 312,-252 325.372,-206.38 329.369,-150.872 330.542,-118.384"/>
<polygon fill="#b8ce56" stroke="#b8ce56" points="291.001,-300.576 282.206,-307.125 288.57,-304.944 286.138,-309.313 286.138,-309.313 286.138,-309.313 288.57,-304.944 290.07,-311.502 291.001,-300.576 291.001,-300.576"/>
<polygon fill="#b8ce56" stroke="#b8ce56" points="330.545,-118.292 335.339,-108.429 330.693,-113.294 330.841,-108.296 330.841,-108.296 330.841,-108.296 330.693,-113.294 326.343,-108.163 330.545,-118.292 330.545,-118.292"/>
</g>
<!-- Invoice&#45;&gt;LineItem -->
<g id="edge10" class="edge"><title>Invoice&#45;&gt;LineItem</title>
<path fill="none" stroke="#709173" d="M331,-63.6398C331,-58.0629 331,-52.1319 331,-46.4761"/>
<ellipse fill="none" stroke="#709173" cx="331" cy="-67.6966" rx="4" ry="4"/>
<polygon fill="#709173" stroke="#709173" points="331,-46.1043 335.5,-36.1043 331,-41.1043 331,-36.1043 331,-36.1043 331,-36.1043 331,-41.1043 326.5,-36.1044 331,-46.1043 331,-46.1043"/>
</g>
</g>
</svg>
